<svg width="256" height="257" viewBox="0 0 256 257" fill="none" xmlns="http://www.w3.org/2000/svg">
<rect y="0.276367" width="256" height="256" rx="25.6" fill="#873EFF"/>
<path d="M186.46 224.25H188.88C188.833 225.303 188.62 226.2 188.24 226.94C187.86 227.673 187.313 228.233 186.6 228.62C185.893 229.007 185.03 229.2 184.01 229.2C183.237 229.2 182.543 229.06 181.93 228.78C181.323 228.5 180.807 228.097 180.38 227.57C179.953 227.037 179.627 226.387 179.4 225.62C179.18 224.853 179.07 223.983 179.07 223.01V220.43C179.07 219.457 179.183 218.587 179.41 217.82C179.643 217.053 179.977 216.403 180.41 215.87C180.843 215.337 181.37 214.933 181.99 214.66C182.617 214.38 183.323 214.24 184.11 214.24C185.117 214.24 185.963 214.433 186.65 214.82C187.337 215.207 187.867 215.773 188.24 216.52C188.613 217.267 188.83 218.177 188.89 219.25H186.47C186.437 218.523 186.337 217.943 186.17 217.51C186.01 217.07 185.763 216.753 185.43 216.56C185.103 216.367 184.663 216.27 184.11 216.27C183.65 216.27 183.253 216.357 182.92 216.53C182.593 216.703 182.323 216.963 182.11 217.31C181.903 217.65 181.747 218.08 181.64 218.6C181.54 219.113 181.49 219.717 181.49 220.41V223.01C181.49 223.677 181.533 224.267 181.62 224.78C181.707 225.293 181.847 225.73 182.04 226.09C182.233 226.443 182.49 226.713 182.81 226.9C183.13 227.08 183.53 227.17 184.01 227.17C184.583 227.17 185.04 227.08 185.38 226.9C185.727 226.72 185.983 226.417 186.15 225.99C186.317 225.563 186.42 224.983 186.46 224.25ZM199.3 226.97V229H190.83V226.97H199.3ZM199.12 216.01L191.72 229H190.1V227.38L197.53 214.44H199.12V216.01ZM198.22 214.44V216.48H190.09V214.44H198.22ZM206.301 214.44L201.581 230.25H199.781L204.511 214.44H206.301ZM214.011 225.24C214.011 224.94 213.978 224.673 213.911 224.44C213.851 224.2 213.735 223.983 213.561 223.79C213.388 223.597 213.141 223.407 212.821 223.22C212.508 223.033 212.101 222.843 211.601 222.65C211.028 222.43 210.491 222.19 209.991 221.93C209.498 221.663 209.061 221.363 208.681 221.03C208.308 220.69 208.015 220.293 207.801 219.84C207.588 219.387 207.481 218.86 207.481 218.26C207.481 217.667 207.585 217.127 207.791 216.64C208.005 216.147 208.305 215.723 208.691 215.37C209.085 215.01 209.551 214.733 210.091 214.54C210.631 214.34 211.228 214.24 211.881 214.24C212.821 214.24 213.625 214.44 214.291 214.84C214.965 215.24 215.478 215.777 215.831 216.45C216.191 217.123 216.371 217.87 216.371 218.69H213.951C213.951 218.217 213.878 217.797 213.731 217.43C213.585 217.063 213.358 216.777 213.051 216.57C212.745 216.363 212.348 216.26 211.861 216.26C211.415 216.26 211.045 216.347 210.751 216.52C210.465 216.693 210.251 216.93 210.111 217.23C209.978 217.53 209.911 217.873 209.911 218.26C209.911 218.527 209.968 218.77 210.081 218.99C210.195 219.203 210.358 219.4 210.571 219.58C210.785 219.76 211.045 219.93 211.351 220.09C211.658 220.25 212.011 220.403 212.411 220.55C213.091 220.797 213.685 221.07 214.191 221.37C214.698 221.67 215.115 222.007 215.441 222.38C215.775 222.747 216.021 223.163 216.181 223.63C216.348 224.097 216.431 224.627 216.431 225.22C216.431 225.82 216.328 226.367 216.121 226.86C215.921 227.347 215.628 227.763 215.241 228.11C214.855 228.457 214.388 228.727 213.841 228.92C213.295 229.107 212.681 229.2 212.001 229.2C211.375 229.2 210.771 229.107 210.191 228.92C209.618 228.733 209.105 228.45 208.651 228.07C208.198 227.683 207.838 227.2 207.571 226.62C207.311 226.04 207.181 225.36 207.181 224.58H209.611C209.611 225.047 209.668 225.447 209.781 225.78C209.895 226.107 210.058 226.377 210.271 226.59C210.491 226.797 210.748 226.95 211.041 227.05C211.341 227.143 211.675 227.19 212.041 227.19C212.495 227.19 212.865 227.11 213.151 226.95C213.445 226.783 213.661 226.553 213.801 226.26C213.941 225.967 214.011 225.627 214.011 225.24ZM220.632 214.44V229H218.202V214.44H220.632ZM227.902 214.44L223.052 221.47L220.142 225.04L219.682 222.5L221.692 219.52L224.962 214.44H227.902ZM225.232 229L221.542 222.12L223.212 220.39L228.102 229H225.232Z" fill="white" fill-opacity="0.9"/>
<path d="M119.974 80.0522L125.968 56.3054H130.123L129.304 63.5708L123.339 86.8936H119.664L119.974 80.0522ZM117.458 56.3054L122.038 80.137L122.066 86.8936H117.939L111.069 56.3054H117.458ZM134.958 79.8543L139.339 56.3054H145.757L138.887 86.8936H134.76L134.958 79.8543ZM130.83 56.3054L136.739 79.7412L137.163 86.8936H133.488L127.41 63.5708L126.618 56.3054H130.83ZM155.709 62.1855V98.6539H149.15V56.3054H155.172L155.709 62.1855ZM172.162 70.3838V72.8151C172.162 75.2086 171.945 77.3194 171.512 79.1476C171.078 80.9757 170.438 82.5117 169.59 83.7556C168.76 84.9806 167.733 85.9041 166.508 86.526C165.283 87.148 163.851 87.459 162.211 87.459C160.666 87.459 159.318 87.1197 158.168 86.4412C157.038 85.7628 156.086 84.811 155.313 83.586C154.54 82.3609 153.919 80.9097 153.447 79.2324C152.995 77.5362 152.665 75.6892 152.458 73.6914V69.9598C152.665 67.849 152.986 65.9266 153.419 64.1927C153.871 62.44 154.484 60.9322 155.257 59.6695C156.048 58.4068 157.009 57.4362 158.14 56.7577C159.271 56.0792 160.619 55.74 162.183 55.74C163.822 55.74 165.264 56.0321 166.508 56.6163C167.752 57.2006 168.789 58.0958 169.618 59.302C170.466 60.5082 171.097 62.0348 171.512 63.8817C171.945 65.7099 172.162 67.8772 172.162 70.3838ZM165.575 72.8151V70.3838C165.575 68.8196 165.472 67.472 165.264 66.3412C165.076 65.1916 164.755 64.2492 164.303 63.5142C163.87 62.7792 163.314 62.2326 162.635 61.8746C161.975 61.5165 161.156 61.3374 160.176 61.3374C159.309 61.3374 158.545 61.5165 157.886 61.8746C157.226 62.2326 156.67 62.7321 156.218 63.3729C155.766 63.9948 155.407 64.7393 155.144 65.6062C154.88 66.4543 154.71 67.3778 154.635 68.3767V75.3028C154.804 76.509 155.087 77.621 155.483 78.6387C155.879 79.6376 156.453 80.4386 157.207 81.0417C157.98 81.6447 158.988 81.9463 160.232 81.9463C161.193 81.9463 162.013 81.7578 162.692 81.3809C163.37 81.004 163.917 80.4386 164.331 79.6847C164.765 78.9308 165.076 77.9885 165.264 76.8577C165.472 75.708 165.575 74.3605 165.575 72.8151ZM183.556 56.3054V86.8936H176.969V56.3054H183.556ZM176.63 48.3049C176.63 47.2495 176.95 46.3731 177.591 45.6758C178.232 44.9596 179.127 44.6016 180.277 44.6016C181.426 44.6016 182.322 44.9596 182.962 45.6758C183.603 46.3731 183.924 47.2495 183.924 48.3049C183.924 49.3227 183.603 50.1802 182.962 50.8775C182.322 51.5748 181.426 51.9235 180.277 51.9235C179.127 51.9235 178.232 51.5748 177.591 50.8775C176.95 50.1802 176.63 49.3227 176.63 48.3049ZM198.06 86.8936H191.473V53.3935C191.473 51.1131 191.85 49.2002 192.604 47.6547C193.376 46.0904 194.46 44.9031 195.855 44.0927C197.268 43.2823 198.936 42.8771 200.858 42.8771C201.443 42.8771 202.018 42.9242 202.583 43.0184C203.148 43.0938 203.686 43.2163 204.194 43.3859L204.053 48.7573C203.789 48.6819 203.459 48.6253 203.064 48.5876C202.687 48.5499 202.319 48.5311 201.961 48.5311C201.132 48.5311 200.425 48.7196 199.841 49.0965C199.257 49.4734 198.814 50.02 198.512 50.7362C198.211 51.4523 198.06 52.3381 198.06 53.3935V86.8936ZM203.035 56.3054V61.394H187.628V56.3054H203.035ZM214.373 83.5294L220.931 56.3054H227.858L217.765 91.5298C217.539 92.3026 217.219 93.1318 216.804 94.0176C216.408 94.9034 215.89 95.7421 215.249 96.5336C214.627 97.3441 213.845 97.9943 212.903 98.4843C211.979 98.9931 210.877 99.2476 209.595 99.2476C209.067 99.2476 208.559 99.2005 208.068 99.1062C207.578 99.012 207.107 98.8989 206.655 98.767V93.4522C206.806 93.4711 206.975 93.4899 207.164 93.5087C207.352 93.5276 207.522 93.537 207.673 93.537C208.596 93.537 209.359 93.3957 209.963 93.113C210.566 92.8491 211.065 92.4156 211.461 91.8125C211.857 91.2283 212.205 90.4462 212.507 89.4661L214.373 83.5294ZM211.461 56.3054L216.832 79.0628L217.991 86.4412L213.468 87.6003L204.365 56.3054H211.461Z" fill="white" fill-opacity="0.9"/>
<rect opacity="0.3" width="74.3597" height="10.9024" rx="5.45119" transform="matrix(-4.37114e-08 1 1 4.37114e-08 73.9641 33.5375)" fill="white"/>
<rect opacity="0.3" width="74.0802" height="10.9024" rx="5.45119" transform="matrix(-4.37114e-08 1 1 4.37114e-08 51.1809 33.5375)" fill="white"/>
<rect opacity="0.8" width="77.9774" height="10.9245" rx="5.46226" transform="matrix(0.338781 0.940865 0.940865 -0.338781 27 35.701)" fill="white"/>
<rect opacity="0.8" width="78.368" height="10.9245" rx="5.46226" transform="matrix(0.338781 0.940865 0.940865 -0.338781 49.5734 35.701)" fill="white"/>
<rect opacity="0.8" width="36.2918" height="10.9245" rx="5.46226" transform="matrix(0.338781 0.940865 0.940865 -0.338781 72.4265 35.701)" fill="white"/>
<g clip-path="url(#clip0_3939_12178)">
<path fill-rule="evenodd" clip-rule="evenodd" d="M112.157 146.603C107.426 146.603 104.345 148.143 101.595 153.314L89.0523 176.969V155.955C89.0523 149.684 86.0817 146.603 80.5806 146.603C75.0795 146.603 72.7691 148.473 70.0185 153.754L58.1362 176.969V156.175C58.1362 149.464 55.3856 146.603 48.6743 146.603H35.0316C29.8606 146.603 27 149.024 27 153.424C27 157.825 29.7505 160.466 34.8115 160.466H40.4227V186.981C40.4227 194.463 45.4837 198.863 52.7451 198.863C60.0065 198.863 63.3072 196.003 66.9379 189.291L74.8595 174.439V186.981C74.8595 194.352 79.7004 198.863 87.0719 198.863C94.4434 198.863 97.1939 196.333 101.375 189.291L119.638 158.485C123.599 151.774 120.849 146.603 112.047 146.603C112.047 146.603 112.047 146.603 112.157 146.603Z" fill="white"/>
<path fill-rule="evenodd" clip-rule="evenodd" d="M146.484 146.603C131.521 146.603 120.188 157.715 120.188 172.788C120.188 187.861 131.631 198.863 146.484 198.863C161.337 198.863 172.669 187.751 172.779 172.788C172.779 157.715 161.337 146.603 146.484 146.603ZM146.484 182.8C140.873 182.8 137.022 178.619 137.022 172.788C137.022 166.957 140.873 162.666 146.484 162.666C152.095 162.666 155.946 166.957 155.946 172.788C155.946 178.619 152.205 182.8 146.484 182.8Z" fill="white"/>
<path fill-rule="evenodd" clip-rule="evenodd" d="M202.705 146.603C187.852 146.603 176.41 157.715 176.41 172.788C176.41 187.861 187.852 198.863 202.705 198.863C217.558 198.863 229 187.751 229 172.788C229 157.825 217.558 146.603 202.705 146.603ZM202.705 182.8C196.984 182.8 193.353 178.619 193.353 172.788C193.353 166.957 197.094 162.666 202.705 162.666C208.316 162.666 212.167 166.957 212.167 172.788C212.167 178.619 208.426 182.8 202.705 182.8Z" fill="white"/>
</g>
<defs>
<clipPath id="clip0_3939_12178">
<rect width="202" height="52.2604" fill="white" transform="translate(27 146.603)"/>
</clipPath>
</defs>
</svg>
